# xmcd
#
# Track frame offsets: 
#        150
#        20865
#        36882
#        63501
#        87774
#        107568
#        127952
#        134058
#        153236
#        174116
#        193838
#        212599
#        237975
#        258854
#
# Disc length: 3672 seconds
#
# Revision: 0
# Processed by: cddbd v1.5.2PL0 Copyright (c) Steve Scherf et al.
# Submitted via: ExactAudioCopy v1.0b1
#
DISCID=bd0e560e
DTITLE=Brad Paisley - American Saturday Night
DYEAR=2009
DGENRE=Country
TTITLE0=American Saturday Night
TTITLE1=Everybody's Here
TTITLE2=Welcome to The Future
TTITLE3=Then
TTITLE4=Water
TTITLE5=She's Her Own Woman
TTITLE6=Welcome to The Future (Reprise)
TTITLE7=Anything Like Me
TTITLE8=You Do The Math
TTITLE9=No
TTITLE10=Catch All The Fish
TTITLE11=Oh Yeah, You're Gone
TTITLE12=The Pants
TTITLE13=I Hope That's Me
EXTD=
EXTT0=
EXTT1=
EXTT2=
EXTT3=
EXTT4=
EXTT5=
EXTT6=
EXTT7=
EXTT8=
EXTT9=
EXTT10=
EXTT11=
EXTT12=
EXTT13=
PLAYORDER=
